<svg width="15" height="13" viewBox="0 0 15 13" fill="none" xmlns="http://www.w3.org/2000/svg">
<path d="M12.7227 2.375H8.01953L6.67969 1.14453C6.35156 0.816406 5.91406 0.625 5.44922 0.625H2.22266C1.23828 0.625 0.472656 1.41797 0.472656 2.375V11.125C0.472656 12.1094 1.23828 12.875 2.22266 12.875H12.7227C13.6797 12.875 14.4727 12.1094 14.4727 11.125V4.125C14.4727 3.16797 13.707 2.375 12.7227 2.375ZM13.1602 11.125C13.1602 11.3711 12.9414 11.5625 12.7227 11.5625H2.22266C1.97656 11.5625 1.78516 11.3711 1.78516 11.125V2.375C1.78516 2.15625 1.97656 1.9375 2.22266 1.9375H5.42188C5.53125 1.9375 5.64062 1.99219 5.72266 2.07422L7.47266 3.6875H12.7227C12.9414 3.6875 13.1602 3.90625 13.1602 4.125V11.125Z" fill="#3E3232" fill-opacity="0.5"/>
</svg>
