<svg width="15" height="13" viewBox="0 0 15 13" fill="none" xmlns="http://www.w3.org/2000/svg">
<path d="M4.4375 5.4375C3.94531 5.4375 3.5625 5.84766 3.5625 6.3125C3.5625 6.80469 3.94531 7.1875 4.4375 7.1875C4.90234 7.1875 5.28516 6.80469 5.28516 6.3125C5.28516 5.84766 4.90234 5.4375 4.4375 5.4375ZM7.5 5.4375C7.00781 5.4375 6.625 5.82031 6.625 6.3125C6.625 6.77734 7.03516 7.16016 7.5 7.16016C7.9375 7.16016 8.34766 6.75 8.34766 6.3125C8.34766 5.84766 7.96484 5.4375 7.5 5.4375ZM10.5625 5.4375C10.0703 5.4375 9.6875 5.84766 9.6875 6.3125C9.6875 6.80469 10.0977 7.1875 10.5625 7.1875C11.0273 7.1875 11.4102 6.80469 11.4102 6.3125C11.4375 5.84766 11.0273 5.4375 10.5625 5.4375ZM7.5 0.625C3.61719 0.625 0.5 3.16797 0.5 6.3125C0.5 7.59766 1.04688 8.80078 1.94922 9.75781C1.53906 10.8242 0.691406 11.7539 0.691406 11.7539C0.5 11.9453 0.472656 12.2188 0.554688 12.4648C0.636719 12.7383 0.882812 12.875 1.15625 12.875C2.82422 12.875 4.13672 12.1914 4.95703 11.6172C5.72266 11.8633 6.59766 12 7.5 12C11.3555 12 14.4727 9.45703 14.4727 6.33984C14.4727 3.22266 11.3555 0.625 7.5 0.625ZM7.5 10.6875C6.76172 10.6875 6.02344 10.5781 5.33984 10.3594L4.71094 10.168L4.19141 10.5508C3.80859 10.8242 3.26172 11.125 2.60547 11.3438C2.82422 11.0156 3.01562 10.6328 3.15234 10.25L3.45312 9.48438L2.87891 8.88281C2.38672 8.36328 1.8125 7.48828 1.8125 6.3125C1.8125 3.90625 4.35547 1.9375 7.47266 1.9375C10.5898 1.9375 13.1328 3.90625 13.1328 6.3125C13.1328 8.74609 10.6172 10.6875 7.5 10.6875Z" fill="#3E3232" fill-opacity="0.5"/>
</svg>
