<svg width="20" height="16" viewBox="0 0 20 16" fill="none" xmlns="http://www.w3.org/2000/svg">
<path d="M18.125 0.5C19.1406 0.5 20 1.35938 20 2.375C20 3 19.6875 3.54688 19.2188 3.89844L10.7422 10.2656C10.2734 10.6172 9.6875 10.6172 9.21875 10.2656L0.742188 3.89844C0.273438 3.54688 0 3 0 2.375C0 1.35938 0.820312 0.5 1.875 0.5H18.125ZM8.47656 11.2812C9.375 11.9453 10.5859 11.9453 11.4844 11.2812L20 4.875V13C20 14.4062 18.8672 15.5 17.5 15.5H2.5C1.09375 15.5 0 14.4062 0 13V4.875L8.47656 11.2812Z" fill="#3E3232" fill-opacity="0.75"/>
</svg>
