<svg width="24" height="24" viewBox="0 0 24 24" fill="none" xmlns="http://www.w3.org/2000/svg">
<path d="M18.3438 8.75C18.3438 8.90625 18.3438 9.03125 18.3438 9.1875C18.3438 13.5312 15.0625 18.5 9.03125 18.5C7.15625 18.5 5.4375 17.9688 4 17.0312C4.25 17.0625 4.5 17.0938 4.78125 17.0938C6.3125 17.0938 7.71875 16.5625 8.84375 15.6875C7.40625 15.6562 6.1875 14.7188 5.78125 13.4062C6 13.4375 6.1875 13.4688 6.40625 13.4688C6.6875 13.4688 7 13.4062 7.25 13.3438C5.75 13.0312 4.625 11.7188 4.625 10.125V10.0938C5.0625 10.3438 5.59375 10.4688 6.125 10.5C5.21875 9.90625 4.65625 8.90625 4.65625 7.78125C4.65625 7.15625 4.8125 6.59375 5.09375 6.125C6.71875 8.09375 9.15625 9.40625 11.875 9.5625C11.8125 9.3125 11.7812 9.0625 11.7812 8.8125C11.7812 7 13.25 5.53125 15.0625 5.53125C16 5.53125 16.8438 5.90625 17.4688 6.5625C18.1875 6.40625 18.9062 6.125 19.5312 5.75C19.2812 6.53125 18.7812 7.15625 18.0938 7.5625C18.75 7.5 19.4062 7.3125 19.9688 7.0625C19.5312 7.71875 18.9688 8.28125 18.3438 8.75Z" fill="white"/>
</svg>
