<svg width="16" height="15" viewBox="0 0 16 15" fill="none" xmlns="http://www.w3.org/2000/svg">
<path d="M15.8477 7.75C15.8477 8.24219 15.4375 8.625 14.9727 8.625H14.0977L14.125 13C14.125 13.082 14.125 13.1641 14.125 13.2188V13.6562C14.125 14.2852 13.6328 14.75 13.0312 14.75H12.5938C12.5391 14.75 12.5117 14.75 12.4844 14.75C12.457 14.75 12.4023 14.75 12.375 14.75H10.8438C10.2148 14.75 9.75 14.2852 9.75 13.6562V11.25C9.75 10.7852 9.33984 10.375 8.875 10.375H7.125C6.63281 10.375 6.25 10.7852 6.25 11.25V13.6562C6.25 14.2852 5.75781 14.75 5.15625 14.75H3.625C3.57031 14.75 3.54297 14.75 3.48828 14.75C3.46094 14.75 3.43359 14.75 3.40625 14.75H2.96875C2.33984 14.75 1.875 14.2852 1.875 13.6562V10.5938C1.875 10.5938 1.875 10.5664 1.875 10.5391V8.625H1C0.507812 8.625 0.125 8.24219 0.125 7.75C0.125 7.50391 0.207031 7.28516 0.398438 7.09375L7.39844 0.996094C7.58984 0.804688 7.80859 0.75 8 0.75C8.19141 0.75 8.41016 0.832031 8.57422 0.96875L15.5469 7.09375C15.7656 7.28516 15.875 7.50391 15.8477 7.75Z" fill="white"/>
</svg>
