<svg width="14" height="15" viewBox="0 0 14 15" fill="none" xmlns="http://www.w3.org/2000/svg">
<path d="M2.6875 7.71875L7 3.4375L11.2812 7.71875C11.4688 7.90625 11.7188 8 12 8C12.25 8 12.5 7.90625 12.6875 7.71875C13.0938 7.34375 13.0938 6.6875 12.6875 6.3125L7.6875 1.3125C7.3125 0.90625 6.65625 0.90625 6.28125 1.3125L1.28125 6.3125C0.875 6.6875 0.875 7.34375 1.28125 7.71875C1.65625 8.125 2.3125 8.125 2.6875 7.71875ZM7.6875 7.3125C7.3125 6.90625 6.65625 6.90625 6.28125 7.3125L1.28125 12.3125C0.875 12.6875 0.875 13.3438 1.28125 13.7188C1.65625 14.125 2.3125 14.125 2.6875 13.7188L7 9.4375L11.2812 13.7188C11.4688 13.9062 11.7188 14 12 14C12.25 14 12.5 13.9062 12.6875 13.7188C13.0938 13.3438 13.0938 12.6875 12.6875 12.3125L7.6875 7.3125Z" fill="#3E3232" fill-opacity="0.75"/>
</svg>
